# xmcd CD database file
#
# Track frame offsets:
#	225
#	13854
#	27497
#	43006
#	54064
#	68294
#	84005
#	101289
#	121723
#	133586
#	145969
#	161936
#	173742
#	191848
#	205351
#	222913
#	239085
#	254521
#	270334
#	284020
#	296569
#	310878
#	328594
#	343816
#
# Disc length: 4758 seconds
#
# Revision: 0
# Processed by: cddbd v1.5.1PL0 Copyright (c) Steve Scherf et al.
# Submitted via: CDex 1.51
#
DISCID=69129318
DTITLE=Shake Keane - Dig It
DYEAR=1900
DGENRE=Jazz
TTITLE0=Bend me, shape me
TTITLE1=By the time I get to Phoenix
TTITLE2=Green onions
TTITLE3=Soul Serenade
TTITLE4=As tears go by
TTITLE5=Sunny
TTITLE6=Going' out of my head
TTITLE7=Honey
TTITLE8=Chain of fools
TTITLE9=Make like Shake
TTITLE10=World
TTITLE11=Love is blue
TTITLE12=Baby it's cold outside
TTITLE13=Gigi
TTITLE14=Bachianas Brasileras
TTITLE15=Makin' whoopee
TTITLE16=I have a dream
TTITLE17=Estrada do sol
TTITLE18=Wives and lovers
TTITLE19=Small world
TTITLE20=Meditation
TTITLE21=Lost in the stars
TTITLE22=Everytime we say goodbye
TTITLE23=Like a woman
EXTD=
EXTT0=
EXTT1=
EXTT2=
EXTT3=
EXTT4=
EXTT5=
EXTT6=
EXTT7=
EXTT8=
EXTT9=
EXTT10=
EXTT11=
EXTT12=
EXTT13=
EXTT14=
EXTT15=
EXTT16=
EXTT17=
EXTT18=
EXTT19=
EXTT20=
EXTT21=
EXTT22=
EXTT23=
PLAYORDER=
